<svg version="1.2" xmlns="http://www.w3.org/2000/svg" viewBox="0 0 1080 1080" width="1080" height="1080">
	<title>blessed</title>
	<style>
		.s0 { fill: #00a3a3 } 
		.s1 { fill: #ffffff } 
	</style>
	<g id="Background">
		<path id="Path 0" class="s0" d="m127.5 9.5c-4.4 0.7-10.3 1.8-13 2.4-2.8 0.7-8.4 2.5-12.5 4-4.1 1.6-11.3 4.9-16 7.3-4.7 2.4-12.5 7.2-17.5 10.8-4.9 3.6-11.7 9.2-15 12.5-3.3 3.3-8.1 8.3-10.6 11-2.5 2.8-7.5 9.3-11.1 14.5-3.6 5.2-8 12.4-9.8 16-1.8 3.6-4.6 10.1-6.2 14.5-1.6 4.4-3.9 12-5.1 17l-2.2 9c0 805.9 0.1 822.3 1.8 830.5 1 4.7 3 11.9 4.4 16 1.4 4.1 4 10.6 5.7 14.5 1.8 3.9 5.8 11 9 16 3.3 5 8.9 12.5 12.5 16.8 3.6 4.2 10.6 11.2 15.6 15.5 5 4.3 11.7 9.6 15 11.8 3.3 2.1 8.2 5.2 11 6.7 2.7 1.5 6.6 3.5 8.5 4.3 1.9 0.8 4.8 2.1 6.5 2.9 1.7 0.7 5.9 2.2 9.5 3.3 3.6 1 9.4 2.4 13 3.1 3.6 0.6 9.4 1.5 13 2.1 4.3 0.6 144.5 1 405.5 1 351.8 0 400.4-0.2 410.5-1.5 6.3-0.9 14.2-2.3 17.5-3.1 3.3-0.9 9.8-3.1 14.5-5.1 4.7-1.9 11.2-4.9 14.5-6.6 3.3-1.7 8.3-4.7 11-6.6 2.8-2 7.9-5.8 11.5-8.7 3.6-2.8 10.5-9.3 15.3-14.5 4.9-5.2 11.6-13.4 15-18.4 3.4-5 8-13 10.3-18 2.3-5 5.3-12.4 6.6-16.5 1.4-4.1 3-10.4 3.6-14 0.6-3.6 1.6-9.8 2.2-13.8 0.7-4.8 1-138.3 1-405.9 0-353.8-0.2-400-1.5-409.8-0.9-6.1-2.3-13.7-3.1-17-0.9-3.3-2.9-9.3-4.5-13.3-1.6-3.9-4.5-10.5-6.5-14.5-2-3.9-5.7-10.1-8.2-13.7-2.6-3.6-7.8-10.2-11.7-14.8-3.8-4.6-10.6-11.3-15-15-4.4-3.7-10.9-8.8-14.5-11.3-3.6-2.5-10.8-6.6-16-9.1-5.2-2.5-12.9-5.7-17-7.1-4.1-1.4-10.9-3.4-15-4.4-7.2-1.7-26-1.8-416-1.9-329.8-0.1-410 0.1-416.5 1.1z"/>
		<path id="Path 1" class="s1" d="m279.5 160c-3.9 0.4-13.4 1.6-21.3 2.8-7.8 1.2-16.1 2.8-18.4 3.6-2.4 0.8-7.2 2.1-10.8 3-3.6 0.9-11 3.2-16.5 5.1-5.5 2-11.8 4.4-14 5.3-2.2 0.9-9.8 4.6-17 8.1-7.2 3.6-17.3 9.1-22.5 12.4-5.2 3.3-15.1 10.3-22 15.6-6.9 5.3-18.1 15.2-25 22.1-6.9 6.9-16.2 17.2-20.6 23-4.5 5.8-10.9 14.6-14.1 19.5-3.3 4.9-8.7 14.1-12.1 20.3-3.4 6.1-6.2 11.4-6.2 11.7 0 0.3-1.3 3.3-2.9 6.8-1.6 3.4-4 9.1-5.4 12.7-1.4 3.6-3.8 10.6-5.5 15.5-1.7 4.9-4 13.5-5.2 19-1.2 5.5-2.8 13.6-3.6 18-0.7 4.4-1.9 14.8-2.5 23-0.7 8.7-0.9 21.7-0.5 31 0.3 8.8 1.3 21.4 2.2 28 0.8 6.6 1.7 12.2 1.9 12.5 0.2 0.3 1.3 4.8 2.4 10 1.1 5.2 3.6 14.2 5.4 20 1.9 5.8 4.9 14.3 6.7 19 1.9 4.7 6.6 14.8 10.5 22.5 3.9 7.7 9.8 18 13 23 3.2 5 9.5 13.7 13.9 19.5 4.5 5.8 14.6 17.3 22.5 25.5 8 8.3 16.3 16.4 18.5 18.2 2.3 1.8 9.3 7.4 15.7 12.5 6.4 5.1 12.9 10.3 14.5 11.5 1.6 1.2 16.2 12.8 32.4 25.8 16.2 12.9 40 31.9 52.9 42.2 12.9 10.4 26.6 21.3 30.6 24.3 3.9 3 17.8 14 30.9 24.5 13.1 10.5 30 24 37.6 30 7.6 6 28.5 22.7 46.5 37 18 14.3 35.8 28.5 39.5 31.5 3.8 3 13.6 10.9 22 17.5 8.3 6.6 29.2 23.2 46.3 36.8 17.2 13.7 32.2 26 33.5 27.3 1.2 1.3 3.6 2.6 5.2 2.9 1.6 0.3 4.1-0.1 5.4-0.8 1.3-0.6 17.3-13.1 35.4-27.7 18.2-14.6 39.9-31.9 48.2-38.5 8.4-6.6 18.2-14.5 22-17.5 3.7-3 21.5-17.2 39.5-31.5 18-14.3 38.9-31 46.5-37 7.6-6 26.5-21.1 42.1-33.5 15.6-12.4 39.9-31.7 54-43 14.2-11.3 29.9-23.8 35.1-27.8 5.1-4 11.2-9 13.6-11 2.4-2 5.1-4.1 6-4.7 0.9-0.5 2.8-1.9 4.2-3.1 1.4-1.2 7.7-6.4 14.1-11.6 6.4-5.1 13.1-10.4 14.9-11.8 1.8-1.4 8.5-6.7 14.9-11.8 6.4-5.1 13.4-10.7 15.7-12.5 2.2-1.8 10.5-9.9 18.5-18.2 7.9-8.3 18-19.7 22.5-25.5 4.4-5.8 10.7-14.5 13.9-19.5 3.2-5 9.1-15.3 13-23 3.9-7.7 8.6-17.8 10.5-22.5 1.8-4.7 4.8-13.2 6.7-19 1.8-5.8 4.3-14.8 5.4-20 1.1-5.2 2.2-9.7 2.4-10 0.2-0.3 1.1-5.9 1.9-12.5 0.9-6.6 1.9-19.2 2.2-28 0.4-9.3 0.2-22.3-0.5-31-0.6-8.3-1.8-18.6-2.5-23-0.8-4.4-2.5-12.9-3.9-19-1.4-6.1-3.7-14.6-5.2-19-1.5-4.4-3.9-10.9-5.2-14.5-1.4-3.6-3.8-9.3-5.4-12.8-1.6-3.4-2.9-6.4-2.9-6.7 0-0.3-2.8-5.6-6.2-11.8-3.4-6.1-8.8-15.3-12.1-20.2-3.2-4.9-9.6-13.7-14.1-19.5-4.4-5.8-13.7-16.1-20.6-23-6.9-6.9-18.2-16.8-25-22.1-6.9-5.3-16.8-12.3-22-15.6-5.2-3.3-15.4-8.8-22.5-12.4-7.1-3.5-14.8-7.2-17-8.1-2.2-0.9-8.5-3.3-14-5.3-5.5-1.9-12.9-4.2-16.5-5.1-3.6-0.9-8.3-2.2-10.5-2.9-2.2-0.7-10.3-2.3-18-3.5-7.7-1.2-17.8-2.6-22.5-3-4.7-0.5-14.6-0.9-22-0.9-7.4 0-17.3 0.4-22 0.9-4.7 0.4-15.7 2-24.5 3.5-8.8 1.4-16.2 2.8-16.5 3-0.3 0.2-5 1.6-10.5 3-5.5 1.4-11.4 3.2-13 3.9-1.6 0.8-4.8 1.9-7 2.6-2.2 0.7-6.4 2.3-9.2 3.6-2.9 1.3-5.5 2.4-5.8 2.4-0.3 0-4 1.7-8.3 3.8-4.2 2.2-10.4 5.4-13.7 7.2-3.3 1.8-7.1 4-8.5 4.8-1.4 0.9-5 3.1-8 5-3 2-10.9 7.7-17.5 12.7-6.6 5.1-16.2 13.2-21.4 18.1-5.2 4.9-13.5 13.8-18.5 19.9-5 6.1-11 13.5-13.3 16.5-2.2 3-6.3 9.1-9 13.5-2.8 4.4-6.2 10.1-7.6 12.8-1.5 2.6-3.2 4.7-3.7 4.7-0.5 0-2.2-2.1-3.7-4.7-1.4-2.7-4.8-8.4-7.6-12.8-2.7-4.4-6.8-10.5-9-13.5-2.3-3-8.3-10.4-13.3-16.5-5-6.1-13.3-15-18.5-19.9-5.2-4.9-14.8-13-21.4-18.1-6.6-5.1-15.8-11.6-20.5-14.5-4.7-2.9-11-6.7-14-8.3-3-1.7-9-4.7-13.3-6.9-4.2-2.1-7.9-3.8-8.2-3.8-0.3 0-2.9-1.1-5.8-2.4-2.8-1.3-7-2.9-9.2-3.6-2.2-0.7-5.4-1.8-7-2.6-1.6-0.7-7.5-2.5-13-3.9-5.5-1.4-10.2-2.8-10.5-3-0.3-0.2-7.7-1.6-16.5-3-8.8-1.5-19.8-3.1-24.5-3.5-4.7-0.5-15-0.8-23-0.8-8 0.1-17.6 0.4-21.5 0.8z"/>
		<path id="Path 2" class="s0" d="m519.9 356.6c-0.2 0.3-4.2 1-8.7 1.5-4.5 0.5-13 2-18.9 3.4-6 1.4-14.8 3.9-19.8 5.6-4.9 1.7-11.9 4.5-15.5 6.1-3.6 1.6-9.6 4.5-13.5 6.5-3.9 2-9.5 5.2-12.5 7.1-3 1.9-8.6 5.8-12.5 8.6-3.9 2.8-10.1 7.8-13.8 11.1-3.7 3.3-6.7 6.2-6.7 6.5 0 0.3 3.1 2.7 6.7 5.5 3.7 2.7 11.6 9.8 17.5 15.7l10.8 10.8c8-6.7 10.8-8.2 13.5-8.6 3-0.4 4.8 0 7.3 1.5 1.7 1.2 3.9 3.6 4.8 5.3 1.1 2.2 1.4 4.5 1 7-0.4 2.6-2.2 5.5-5.6 9.3-2.7 3-5 6.1-5 6.7 0 0.7 3.1 7.6 6.9 15.3 3.8 7.7 8.3 18 10 23 1.7 5 3.8 11.9 4.6 15.5 0.8 3.6 2.2 11 3.1 16.5 0.9 5.5 1.9 13.7 2.2 18.3l0.7 8.2c7.8 0 11.7 0.5 13.8 1 2 0.6 4.8 2.2 6.2 3.7 1.4 1.6 2.8 4.4 3.1 6.3 0.4 2.3 0.1 4.6-1 6.7-0.9 1.8-2.8 4.1-4.3 5-1.8 1.1-5.8 1.9-11.3 2.3l-8.5 0.5c-3.5 17.8-6.4 28.4-8.6 35-2.2 6.6-6 16.3-8.5 21.5-2.5 5.2-5.4 10.7-6.5 12.2-1 1.6-1.9 3.7-1.9 4.8 0 1.1 1.7 3.9 3.8 6.2 2.9 3.3 3.8 5.1 4 8.7 0.3 3.7-0.1 5.2-2 7.5-1.2 1.6-3.8 3.5-5.5 4.3-1.8 0.7-4.5 1-6 0.7-1.6-0.4-4.5-1.8-6.6-3.3l-3.8-2.6c-17.4 17.3-23.9 23.6-25.8 25.1-2.4 2.1-3.2 3.4-2.8 4.6 0.4 1 3.7 4.2 7.4 7 3.7 2.9 11 8.1 16.2 11.6 5.3 3.4 15 8.9 21.6 12.1 6.6 3.3 16.7 7.5 22.5 9.4 5.8 2 14.3 4.5 19 5.5 4.7 1.1 11 2.6 14 3.4 3.9 0.9 14 1.3 35.5 1.3 21.5 0 31.6-0.4 35.5-1.3 3-0.8 9.3-2.2 14-3.3 4.7-1.1 13.2-3.6 19-5.5 5.8-1.9 15.9-6.2 22.5-9.4 6.6-3.3 16.3-8.7 21.5-12.1 5.2-3.4 12.8-8.8 16.8-12 3.9-3.3 7.2-6.6 7.2-7.4 0-0.8-1.5-2.7-3.2-4.1-1.8-1.4-8.4-7.6-14.5-13.7l-11.3-11.2c-5.8 4-8.7 5.5-10.2 5.8-1.6 0.4-4.2 0.1-6-0.6-1.8-0.8-4.4-2.7-5.6-4.3-1.9-2.3-2.3-3.8-2-7.5 0.2-3.6 1.1-5.4 4.1-8.7 2-2.3 3.7-4.8 3.7-5.5 0-0.6-2.9-7.1-6.5-14.2-3.6-7.2-8-17.5-9.9-23-1.9-5.5-4.6-15.6-6.1-22.5-1.5-6.9-2.9-13.1-3.1-13.8-0.3-0.8-2.7-1.2-7.1-1.3-3.8 0-8.3-0.5-10.2-1.2-1.9-0.7-4.4-2.5-5.5-4-1.4-1.9-2.1-4.3-2.1-7.2 0-3.5 0.6-5 3-7.5 1.6-1.7 4.6-3.5 6.5-4 1.9-0.6 5.8-1 8.5-1h5c2-20.5 3.5-30.8 4.6-36 1-5.2 3.6-14.7 5.6-21 2.1-6.3 7-17.9 11-25.8l7.3-14.2c-8.6-9.7-11.3-13.8-11.6-15.5-0.4-1.7-0.3-4.1 0.1-5.5 0.4-1.4 1.7-3.5 2.9-4.8 1.1-1.2 3.6-2.7 5.4-3.2 2.2-0.7 4.4-0.6 7 0.2 2 0.6 5.4 2.7 7.5 4.5l3.7 3.3c16.7-16.7 24.6-23.8 28.2-26.5 3.7-2.8 6.8-5.3 6.8-5.8 0-0.4-3.7-3.9-8.2-7.8-4.6-3.9-13.5-10.5-19.8-14.7-6.3-4.2-17.4-10.4-24.5-13.8-7.1-3.4-17.3-7.6-22.5-9.4-5.2-1.7-14.1-4.2-19.7-5.6-5.7-1.3-14-2.9-18.5-3.6-4.6-0.6-17.5-1.3-28.8-1.5-11.3-0.2-20.8-0.1-21.1 0.3zm-144.4 81.1c-2.5 3.2-7.7 11-11.5 17.3-3.8 6.3-8.6 15.3-10.8 20-2.2 4.7-5.7 13.9-8 20.5-2.2 6.6-5.2 17.6-6.7 24.5-2.3 10.6-2.8 15.7-3.2 34-0.3 12.3-0.1 25.1 0.5 30 0.6 4.7 2.2 13.7 3.6 20 1.4 6.3 4 16 5.9 21.5 1.9 5.5 4.9 13.4 6.7 17.5 1.8 4.1 5.6 11.8 8.5 17 2.9 5.2 8.3 13.8 12 19 3.8 5.2 8 10.7 9.4 12.3 1.4 1.5 2.9 2.7 3.4 2.7 0.4 0 4.6-3.3 9.5-7.4 4.8-4.1 11.1-10.2 14-13.5 2.8-3.4 5.2-6.8 5.2-7.6 0-0.8-1.1-3.2-2.5-5.3-1.6-2.3-2.5-5.1-2.5-7.5 0-2.8 0.8-4.6 3.4-7.5 3.1-3.3 4-3.7 8.4-3.7 2.9 0 5.6 0.6 6.7 1.5 1.5 1.3 1.9 1.3 3.2-0.5 0.9-1.1 3-5.1 4.8-9 1.9-3.9 4.5-10.1 5.8-14 1.4-3.9 3.2-9.5 4-12.5 0.8-3 2-7.3 2.6-9.5 0.6-2.2 1.1-5.2 1.1-6.8 0-2.7 0-2.7-7.2-2.8-4 0-8.8-0.5-10.7-1.2-1.9-0.7-4.4-2.5-5.5-4-1.4-1.9-2.1-4.3-2.1-7.2 0-3.5 0.6-5 3-7.5 1.7-1.7 4.6-3.5 6.5-4 1.9-0.6 6.8-1 10.8-1h7.2c0-6.6-0.5-12.5-1-17.5-0.6-5-1.7-11.9-2.5-15.5-0.8-3.6-2.8-10.8-4.6-16-1.7-5.2-5-13.6-7.3-18.5-2.3-5-4.8-9.4-5.6-9.9-1.1-0.6-2.4 0.1-4.5 2.1-1.6 1.7-4.1 3.7-5.5 4.7-1.4 0.9-4.1 1.6-6 1.6-1.9-0.1-4.5-0.6-5.7-1.3-1.3-0.7-3.2-2.6-4.3-4.2-1.1-1.6-2-4.2-2-5.8 0-1.5 0.7-4.2 1.5-6 0.8-1.7 3.5-5.2 6-7.7 2.5-2.5 4.5-5.3 4.5-6.3 0-0.9-4.4-6.1-9.7-11.5-5.4-5.4-12.7-11.9-16.3-14.5-3.6-2.6-6.8-4.7-7.2-4.7-0.4 0-2.8 2.6-5.3 5.7zm317.5-1c-3.6 2.6-10.9 9.1-16.2 14.5-5.4 5.4-9.8 10.6-9.8 11.5 0 1 2 3.8 4.5 6.3 2.5 2.5 5.2 6 6 7.7 0.8 1.8 1.5 4.5 1.5 6 0 1.6-0.9 4.3-2 6-1.3 2.2-3.3 3.7-5.7 4.4-2.1 0.6-5.1 0.9-6.8 0.5-1.6-0.3-5.1-2.3-7.7-4.6-2.9-2.4-5.3-3.7-6-3.3-0.7 0.5-3.1 4.8-5.5 9.8-2.3 4.9-5.6 13.3-7.3 18.5-1.7 5.2-3.9 13.8-5 19-1 5.2-2.2 14.1-2.7 19.8l-0.8 10.2c11.6 0 16.6 0.4 18.5 1 1.9 0.5 4.9 2.3 6.5 4 2.4 2.5 3 4 3 7.5 0 2.9-0.7 5.3-2.1 7.2-1.1 1.5-3.6 3.3-5.5 4-1.9 0.7-6.7 1.2-10.6 1.2l-7.3 0.1c0.9 7.4 2 12.9 3.1 17 1.2 4.1 3.2 10.6 4.6 14.5 1.3 3.9 3.9 10.1 5.7 14 1.8 3.9 4 7.8 4.9 8.7 1.6 1.7 2 1.7 5.2 0.3 2-0.8 4.9-1.3 6.8-1 1.7 0.3 4.5 1.8 6 3.3 1.9 1.9 3 4.1 3.3 7.2 0.5 3.7 0.1 5.1-2 8.2-1.4 2.1-2.6 4.6-2.6 5.5 0 1 2.8 4.8 6.3 8.5 3.4 3.6 9.1 9.2 12.7 12.3 3.6 3.2 7.3 6.1 8.3 6.6 1.2 0.7 2.3 0.3 4-1.4 1.3-1.2 4.3-4.9 6.8-8.2 2.5-3.3 6.3-8.7 8.4-12 2.2-3.3 5.4-8.7 7.3-12 1.9-3.3 5.2-10 7.4-15 2.2-5 5.4-12.8 7-17.5 1.6-4.7 3.9-12.8 5.3-18 1.3-5.2 3-13.3 3.7-18 0.8-5.2 1.3-17.4 1.3-31 0-14-0.5-25.5-1.3-30.5-0.8-4.4-2.2-11.6-3.3-16-1-4.4-3.2-12.3-5-17.5-1.7-5.2-4-11.5-5.1-14-1.1-2.5-3.1-7-4.5-10-1.4-3-5.6-10.7-9.3-17-3.8-6.3-9-14.1-11.5-17.3-2.5-3.1-4.8-5.7-5.3-5.7-0.4 0-3.6 2.1-7.2 4.7z"/>
	</g>
</svg>