<?xml version="1.0" encoding="UTF-8" standalone="no"?>
<svg
   viewBox="0 0 512 512"
   style="height: 348px; width: 348px;"
   version="1.1"
   id="svg1"
   sodipodi:docname="deceasedCondition.svg"
   inkscape:version="1.4 (e7c3feb1, 2024-10-09)"
   xmlns:inkscape="http://www.inkscape.org/namespaces/inkscape"
   xmlns:sodipodi="http://sodipodi.sourceforge.net/DTD/sodipodi-0.dtd"
   xmlns="http://www.w3.org/2000/svg"
   xmlns:svg="http://www.w3.org/2000/svg">
  <defs
     id="defs1" />
  <sodipodi:namedview
     id="namedview1"
     pagecolor="#ffffff"
     bordercolor="#000000"
     borderopacity="0.25"
     inkscape:showpageshadow="2"
     inkscape:pageopacity="0.0"
     inkscape:pagecheckerboard="0"
     inkscape:deskcolor="#d1d1d1"
     inkscape:zoom="1.7148438"
     inkscape:cx="255.70843"
     inkscape:cy="256"
     inkscape:window-width="1920"
     inkscape:window-height="1027"
     inkscape:window-x="0"
     inkscape:window-y="25"
     inkscape:window-maximized="1"
     inkscape:current-layer="svg1" />
  <rect
     fill="#bc2100"
     fill-opacity="1"
     height="512"
     width="512"
     rx="32"
     ry="32"
     id="rect1"
     style="fill:#ff0011;fill-opacity:1" />
  <g
     class=""
     transform="translate(-28,0)"
     style=""
     id="g1">
    <path
       d="M267.313 18c-59.77.48-121.55 26.74-150.657 82.125L76.72 489.905H369.56v-.06h64.874l.783-8.5 30-331.408.405-4.218-2.938-3.095-68.75-72.094c-26.61-34.736-75.88-52.937-126.625-52.53zm-8.532 34.313c49.237.1 91.104 27.793 95.72 64.874 3.886 31.22-19.827 59.727-56.25 72.282l9.688 50.31-39.438-17.843-27.313 30.344-22.75-38.405-45.5 17.563 20.47-53c-17.87-11.625-30.013-28.117-32.376-47.094-4.922-39.55 34.388-74.78 87.814-78.688 3.34-.244 6.655-.35 9.937-.343zm41.5 49.5c-14.57 0-26.374 11.804-26.374 26.374 0 14.57 11.805 26.375 26.375 26.375s26.376-11.804 26.376-26.375c0-14.572-11.805-26.375-26.375-26.375zm-94.436 2.156c-11.424 0-20.688 9.262-20.688 20.686s9.264 20.688 20.688 20.688 20.687-9.264 20.687-20.688c0-11.426-9.262-20.687-20.686-20.687zm202.375 8.593l38.03 39.906-28.875 318.686H371.47l26.686-260.469 28.375-13.28-42.31-15.75v.093L363.186 173l39.782-9.28 5.25-51.157zm-160.095 39.062l-21.938 31.156 36.594 4.22-14.655-35.375zm-108.53 79.188c54.585 58.484 149.392 118.814 222.28 142.25-1.684 17.42-10.09 33.018-20.188 40.968-58.604-52.71-153.878-115.29-222.375-131.874-.718-21.207 7.723-40.255 20.282-51.344zm209.655 6.312c14.336 11.4 23.118 25.974 20.813 46.78-24.526 7.466-54.398 19.293-85.688 33.376-8.742-4.956-17.495-10.208-26.156-15.655 35.11-21.406 67.09-44.536 91.03-64.5zm-152.22 98.03c7.634 4.202 15.317 8.63 23 13.25-34.043 17.586-66.647 36.193-92.78 53.22-10.527-7.495-15.798-18.125-15.813-35.125 27.22-6.096 56.537-17.335 85.594-31.344z"
       fill="#fcfcfc"
       fill-opacity="1"
       transform="translate(0, 0) scale(1, 1) rotate(0, 256, 256) skewX(3) skewY(0)"
       id="path1" />
  </g>
</svg>
