<?xml version="1.0" encoding="UTF-8" standalone="no"?>
<svg
   viewBox="0 0 512 512"
   style="height: 347px; width: 347px;"
   version="1.1"
   id="svg1"
   sodipodi:docname="indebtedCondition.svg"
   inkscape:version="1.4 (e7c3feb1, 2024-10-09)"
   xmlns:inkscape="http://www.inkscape.org/namespaces/inkscape"
   xmlns:sodipodi="http://sodipodi.sourceforge.net/DTD/sodipodi-0.dtd"
   xmlns="http://www.w3.org/2000/svg"
   xmlns:svg="http://www.w3.org/2000/svg">
  <defs
     id="defs1" />
  <sodipodi:namedview
     id="namedview1"
     pagecolor="#ffffff"
     bordercolor="#000000"
     borderopacity="0.25"
     inkscape:showpageshadow="2"
     inkscape:pageopacity="0.0"
     inkscape:pagecheckerboard="0"
     inkscape:deskcolor="#d1d1d1"
     inkscape:zoom="0.42871092"
     inkscape:cx="257.74944"
     inkscape:cy="263.58088"
     inkscape:window-width="1712"
     inkscape:window-height="1027"
     inkscape:window-x="208"
     inkscape:window-y="25"
     inkscape:window-maximized="0"
     inkscape:current-layer="svg1" />
  <rect
     fill="#6b00ca"
     fill-opacity="1"
     height="512"
     width="512"
     rx="32"
     ry="32"
     id="rect1"
     style="fill:#1c0036;fill-opacity:1" />
  <g
     class=""
     transform="translate(-1.166287,8.1640091)"
     id="g1">
    <path
       d="m 446.344,189.75 c -19.464,-0.103 -42.28,9.843 -60.875,28.438 -5.778,5.776 -10.684,11.978 -14.75,18.343 -28.734,-17.313 -69.766,-18.263 -110.22,-7.968 -0.02,-0.093 -0.04,-0.187 -0.063,-0.28 -12.357,3.134 -24.726,7.248 -36.687,12.312 l 0.188,0.406 C 136.609,278.507 72.035,364.991 175.905,443.064 H 46.03 L 17.25,495.03 h 279.875 l -96.28,-112.374 c 26.414,-29.067 73.41,-47.584 105.56,-49.062 C 321.42,382.674 345.85,457.11 384.47,495 h 66.25 c -46.88,-50.664 -83.318,-118.734 -89.19,-195.75 1.76,3.523 4.022,6.77 6.845,9.594 20.312,20.312 60.906,12.657 90.656,-17.094 29.752,-29.75 37.407,-70.344 17.095,-90.656 -7.617,-7.617 -18.103,-11.282 -29.78,-11.344 z"
       fill="#ff9f00"
       fill-opacity="1"
       transform="matrix(0.9,0,0,0.9,25.6,25.6)"
       id="path1"
       sodipodi:nodetypes="scccccccccccccccccsss"
       style="display:none" />
  </g>
  <path
     style="fill:#ff9f00;fill-opacity:1;stroke:#ff6787;stroke-width:0;stroke-linecap:round"
     d="M 255,220 105,110 H 205 V 30 h 100 v 80 h 100 z"
     id="path2"
     sodipodi:nodetypes="cccccccc" />
  <path
     style="fill:#ff9f00;fill-opacity:1;stroke:#ff6787;stroke-width:0;stroke-linecap:round"
     d="m 54.429506,483.26804 c 0,0 105.782414,9.79923 157.515694,0.82469 12.68093,-2.19985 29.2065,-2.44695 36.28634,-13.19503 5.30126,-8.04797 2.48807,-20.16041 -1.64938,-28.86413 -9.27267,-19.50639 -54.82971,-62.36914 -54.82971,-62.36914 0,0 42.76006,-11.01927 57.0794,-16.83539 17.91717,-7.27746 50.55472,-22.52533 50.55472,-22.52533 0,0 15.99925,56.90692 29.14712,78.52132 13.14786,21.61441 60.77835,68.00048 60.77835,68.00048 l 68.10764,0.34159 c 0,0 -51.76882,-49.8418 -71.465,-73.17298 -16.37765,-19.40021 -35.60313,-101.58836 -35.60313,-101.58836 0,0 8.53446,12.28442 25.87264,14.7272 18.7312,2.63904 41.83791,-13.77249 54.14651,-26.30718 15.89773,-16.18974 28.68609,-65.55089 19.93404,-86.48524 -7.8729,-18.83147 -30.19892,-24.30206 -50.58904,-25.22377 -18.15999,-0.8209 -30.93114,17.30804 -40.26829,29.06424 -6.29108,7.92095 -22.774,39.47793 -22.774,39.47793 0,0 -32.04841,-10.61331 -54.99549,-10.23788 -33.3125,0.54502 -58.20701,19.2815 -89.63244,30.34775 -22.32301,7.8609 -40.17065,23.30871 -56.36187,35.12005 -11.3806,8.30204 -29.19862,43.14603 -28.61548,57.22089 0.73883,17.83244 58.69446,66.15099 58.69446,66.15099 L 50.306059,432.13729 Z"
     id="path3"
     sodipodi:nodetypes="cssscscsccscssssscssssccc" />
</svg>
