<?xml version="1.0" encoding="UTF-8" standalone="no"?>
<svg
   version="1.2"
   viewBox="0 0 512 512"
   width="512"
   height="512"
   id="svg2"
   sodipodi:docname="maximizedCondition.svg"
   inkscape:version="1.4 (e7c3feb1, 2024-10-09)"
   xmlns:inkscape="http://www.inkscape.org/namespaces/inkscape"
   xmlns:sodipodi="http://sodipodi.sourceforge.net/DTD/sodipodi-0.dtd"
   xmlns="http://www.w3.org/2000/svg"
   xmlns:svg="http://www.w3.org/2000/svg">
  <defs
     id="defs2" />
  <sodipodi:namedview
     id="namedview2"
     pagecolor="#ffffff"
     bordercolor="#000000"
     borderopacity="0.25"
     inkscape:showpageshadow="2"
     inkscape:pageopacity="0.0"
     inkscape:pagecheckerboard="0"
     inkscape:deskcolor="#d1d1d1"
     inkscape:zoom="1.7148438"
     inkscape:cx="256.29157"
     inkscape:cy="256"
     inkscape:window-width="1200"
     inkscape:window-height="1027"
     inkscape:window-x="0"
     inkscape:window-y="25"
     inkscape:window-maximized="0"
     inkscape:current-layer="svg2" />
  <title
     id="title1">maximizedCondition</title>
  <style
     id="style1">
		.s0 { fill: #000858 } 
		.s1 { fill: #85ff00 } 
	</style>
  <path
     fill-rule="evenodd"
     class="s0"
     d="m32 0h448c17.7 0 32 14.3 32 32v448c0 17.7-14.3 32-32 32h-448c-17.7 0-32-14.3-32-32v-448c0-17.7 14.3-32 32-32z"
     id="path1" />
  <g
     id="g2">
    <path
       class="s1"
       d="m357.8 17.5q-0.3 0-0.5 0-0.3 0-0.5 0-0.3 0-0.5 0-0.3 0-0.6 0-3.8 0.1-8.2 0.7c-4.6 3.4-4.5 13.2-8.9 18.9-9.9-2.2-17.2 5.8-16.8 13.8l13.6 8.9c-13.5 22.4-33.8 39.5-39 63-16.6-2.9-38-4.9-54.2-3.2q-0.5 1-1 2.1c-8 16.9-19.7 30.1-33.1 38.1-13.3 7.9-28.9 10.5-42.5 4.1-12.1-5.8-19.6-17.5-22.7-30.9-28.1-3.6-60.1 34.4-89.7 60.7-19.1 27.1 4 80.5-2.2 98.3-3.7 10.8 4.9 33.1 20.6 36.3 15.3 3.1 26.1-9.4 33.7-21.8 2-3.3-25.8-19.4-27.3-28.1-1.9-10.4-0.7-41.7 2.5-60.3 19-1.9 35.1-17.2 44.8-25.1 8 36.8 14.7 80.1 29.7 117.1-8.6 51.1-18.9 98.5-16.8 150.8l-44.9 7.8c-4.6 7.7-6.8 16.9 0 25.4 0 0 74.4 0.4 77.2 0.4 1.7-0.3 2.5-20.5 1.5-30.6 2.3-31.6 22.1-70 38-102.4 27.6-37.5 63.8-46.1 93.3-86.7 29.2 22.4 46.9 45.2 59.5 77 28.3-35.3 33.6-36.4 63.7-55.9-1.9-8.5-2.5-17.5-14.6-22.2-20.5 7.5-11.6 1.7-39.4 18.9-14.8-21.9-29.1-50.8-57.9-62.1-3.8-1-45.1 11.2-76.6 38.1 4.7-23.3 9.7-56.2 11.4-87.9 20.9-4.9 45.9-20.2 65.8-28.7 36.3-29.3 30.2-54.2 42.9-83.5l7.4-2c8.9-14.3 14.6-28.4 16.9-42.8-6.8-3.5-14.5-6-24.6-6.2zm-148.2 32.9c-5.2 0-10.9 1.7-17 5.3-9.7 5.8-19.4 16.4-26 30.3-6.5 14-8.6 28.3-6.9 39.5 1.7 11.2 6.6 18.7 13.6 22.1 7 3.3 15.9 2.4 25.6-3.4 9.7-5.7 19.5-16.4 26-30.3 6.6-13.9 8.6-28.2 7-39.4-1.7-11.2-6.6-18.7-13.7-22.1-2.6-1.3-5.5-1.9-8.6-2zm240.7 286.8c-3.8 0.1-7.9 2-11.9 5.8-4.1 3.9-7.1 9.1-9.1 15.1-2 6-3.2 12-1.9 17.5 3.9 16-2.9 1.2-3.8-5.4-0.6-4.4-0.6-9.9-1.2-17.8l-18 1.5c0.4 4.6 0.5 8.5 0.8 12.4l-16.4 1.2c5 21.1 3.9 49.4 33 47.1-7.9 22.4-21.2 45.9-36.6 71.3l15.3 9.4c8.3-13.6 16.2-26.9 23-40 5 14.7 13.2 27.4 19.7 39.6l15.9-8.5c-9-16.7-18.3-31.1-21.2-47.3 5.1-16 10-32.7 11.6-49.9 7.5-3.8 12.5-12.4 14.8-19.1 2-6 2.7-11.9 1.9-17.5-2.6-9.8-8.7-15.7-15.9-15.4z"
       id="path2" />
  </g>
</svg>
