<?xml version="1.0" encoding="UTF-8" standalone="no"?>
<svg
   version="1.2"
   viewBox="0 0 512 512"
   width="512"
   height="512"
   id="svg2"
   sodipodi:docname="minimizedCondition.svg"
   inkscape:version="1.4 (e7c3feb1, 2024-10-09)"
   xmlns:inkscape="http://www.inkscape.org/namespaces/inkscape"
   xmlns:sodipodi="http://sodipodi.sourceforge.net/DTD/sodipodi-0.dtd"
   xmlns="http://www.w3.org/2000/svg"
   xmlns:svg="http://www.w3.org/2000/svg">
  <defs
     id="defs2" />
  <sodipodi:namedview
     id="namedview2"
     pagecolor="#ffffff"
     bordercolor="#000000"
     borderopacity="0.25"
     inkscape:showpageshadow="2"
     inkscape:pageopacity="0.0"
     inkscape:pagecheckerboard="0"
     inkscape:deskcolor="#d1d1d1"
     inkscape:zoom="1.7148438"
     inkscape:cx="256.29157"
     inkscape:cy="256"
     inkscape:window-width="1200"
     inkscape:window-height="1027"
     inkscape:window-x="0"
     inkscape:window-y="25"
     inkscape:window-maximized="0"
     inkscape:current-layer="svg2" />
  <title
     id="title1">minimizedCondition</title>
  <style
     id="style1">
		.s0 { fill: #85ff00 } 
		.s1 { fill: #000858 } 
	</style>
  <path
     fill-rule="evenodd"
     class="s0"
     d="m32 0h448c17.7 0 32 14.3 32 32v448c0 17.7-14.3 32-32 32h-448c-17.7 0-32-14.3-32-32v-448c0-17.7 14.3-32 32-32z"
     id="path1"
     style="fill:#83df20;fill-opacity:1" />
  <g
     id="g2">
    <path
       class="s1"
       d="m281.1 491.9l13.8-11.5-6.1-7.2q1.3-0.2 2.5-0.4 1.2-0.2 2.3-0.5 1.2-0.2 2.4-0.5 1.2-0.3 2.3-0.7c10-3.1 18.4-8.7 24.1-15.8 5.7-7.2 8.9-16.7 6.2-25.8q-0.2-0.6-0.3-1.1-0.2-0.5-0.4-1-0.2-0.5-0.5-1-0.2-0.5-0.4-1c1.2-2.8 2-5.9 2-9.3 0-9.9-4.4-22-16.1-29.6q-0.2-0.1-0.3-0.2 1-1 2.1-2 1-1 1.9-2.1 1-1.1 1.8-2.2 0.9-1.1 1.8-2.3l40.7 13.6 30.6 91.7 17-5.7-33.4-100.3-47.3-15.7c0.8-3.2 1.2-6.2 1.2-9.2v-0.6l-4.6-32.4q-2 1.2-4 2.4-2.1 1.2-4.1 2.3-2 1.2-4.1 2.3-2.1 1.1-4.2 2.1-0.2 0.1-0.5 0.2l2.6 18.3c-20.4 8.8-37.3 13.1-54.1 13.1-16.8-0.1-33.6-4.5-54.1-13.2l2.6-18.2q-0.3-0.1-0.5-0.2-2.1-1-4.2-2.1-2.1-1.1-4.1-2.3-2-1.1-4.1-2.3-2-1.2-4-2.4l-4.6 32.4v0.6c0 3 0.4 6 1.2 9.2l-47.3 15.7-33.4 100.3 17 5.7 30.6-91.7 40.7-13.6q0.9 1.3 1.9 2.5 1 1.3 2.1 2.5 1 1.1 2.2 2.3 1.1 1.1 2.3 2.1c-11.4 7.3-17.3 18.4-17.3 29 0 3.4 0.8 6.5 2 9.3q-0.2 0.5-0.4 1-0.3 0.5-0.5 1-0.2 0.5-0.4 1-0.1 0.5-0.3 1.1c-2.7 9.1 0.5 18.6 6.2 25.8 5.7 7.1 14.1 12.7 24 15.8q1.2 0.4 2.4 0.7 1.2 0.3 2.4 0.5 1.1 0.3 2.3 0.5 1.2 0.2 2.5 0.4l-6.1 7.2 13.8 11.5 21.1-25.1q0.6-0.4 1.1-0.8 0.5-0.4 1-0.9 0.5-0.4 1-0.9 0.4-0.4 0.9-0.9 0.4 0.5 0.9 0.9 0.5 0.5 1 0.9 0.5 0.5 1 0.9 0.5 0.4 1.1 0.8zm2.2-36.4c-3 0-5.8-0.4-8.1-1.1-4.6-1.4-6.8-3.6-7.4-5.9-0.7-2.4-0.2-5.4 2.9-9.2 3-3.8 8.4-7.7 15.2-9.8 6.9-2.2 13.5-2.1 18.1-0.6 4.6 1.4 6.7 3.6 7.4 5.9 0.6 2.3 0.1 5.4-2.9 9.2-3.1 3.8-8.5 7.7-15.3 9.8-3.4 1.1-6.8 1.6-9.9 1.7zm-54.7 0c-3.1-0.1-6.5-0.6-9.9-1.7-6.8-2.1-12.2-6-15.3-9.8-3-3.8-3.6-6.9-2.9-9.2 0.7-2.3 2.8-4.5 7.4-5.9 4.6-1.5 11.2-1.6 18.1 0.6 6.8 2.1 12.2 6 15.2 9.8 3.1 3.8 3.6 6.8 2.9 9.2-0.6 2.3-2.8 4.5-7.4 5.9-2.3 0.7-5.1 1.1-8.1 1.1zm27.4-26.4q-0.4-0.5-0.8-1c-5.8-7.2-14.1-12.8-24.1-15.9-10-3.1-20-3.3-28.6-0.6q-0.5 0.1-1 0.3c1-3.4 3.5-6.7 9.1-10q3.1-1.9 7.6-3.5c10.1 4.3 22.6 7 37.7 7 15.7 0 28.6-2.9 39-7.5 3.4 1.1 6.1 2.4 8.2 3.7 5.2 3.4 7 6.5 7.6 10.4q-0.2-0.1-0.3-0.1-0.2-0.1-0.4-0.1-0.1-0.1-0.3-0.1-0.1-0.1-0.3-0.1c-8.6-2.7-18.6-2.5-28.6 0.6-10 3.1-18.3 8.7-24.1 15.9q-0.4 0.5-0.7 1zm-0.1-41.7c-27.7 0-42.2-9.8-49.2-19.6 17.3 6.1 33.3 9.2 49.2 9.3 16 0 31.9-3 49.2-9.2-7 9.8-21.5 19.5-49.2 19.5zm221.2-58.7l5.7-17.1-43.7-14.6-17.3-51.9-27.7 7.9c-6.3 8.5-13.1 16.7-20.2 24.5l36.2-10.3 14.7 44zm-442.3 0l52.3-17.4 14.7-44.1 36.3 10.4c-7.2-7.8-13.9-16-20.2-24.5l-27.7-7.9-17.3 51.9-43.8 14.6zm263.4-15.9c0.3 0 0.7-0.2 1.8-0.7 60.8-30.4 104-96.5 127.5-159.1 11.7-31.3 18.6-61.6 20.5-85.6 1.9-23.9-2.6-41.2-6.4-44.9-1.7-1.8-4.3-2.8-9.7-2.4-5.3 0.5-12.7 2.7-21 6.7-16.7 8-37.2 22.9-56.7 41.3-39 36.8-73.2 88.5-73.2 124 0 16 0 51.8 3.9 80.8 1.9 14.6 5.1 27.5 8.6 34.4 1.8 3.4 3.5 5 4.1 5.3 0.3 0.1 0.3 0.3 0.6 0.2zm-84.4 0c0.2 0.1 0.3-0.1 0.6-0.2 0.6-0.3 2.3-1.9 4.1-5.3 3.5-6.9 6.6-19.8 8.6-34.4 3.8-29 3.9-64.8 3.9-80.8 0-35.5-34.2-87.2-73.2-124-19.5-18.4-40-33.3-56.7-41.3-8.4-4-15.7-6.2-21.1-6.7-5.3-0.4-7.9 0.6-9.6 2.4-3.8 3.7-8.3 21-6.4 44.9 1.9 24 8.7 54.3 20.5 85.6 23.5 62.6 66.7 128.7 127.5 159.1 1.1 0.5 1.5 0.7 1.8 0.7zm42.2-63.7q1.1 0 2.1 0 1.1 0 2.2-0.1 1 0 2.1-0.1 1-0.1 2.1-0.2c-0.4-6.2-0.7-12.2-0.9-18.1q-1 0.2-1.9 0.3-1 0-1.9 0.1-1 0.1-1.9 0.1-1 0-1.9 0-3.8 0-7.6-0.7c-0.2 5.8-0.5 11.9-0.9 18.1q1 0.2 2.1 0.3 1.1 0.1 2.1 0.2 1.1 0 2.2 0.1 1 0 2.1 0zm33.7-132.5c3.4-5.3 7.1-10.6 11-15.8-4.7-6.4-9.8-12.2-15.3-17-8.5-7.3-18.4-12.7-29.4-12.7-11 0-20.9 5.4-29.4 12.7-5.6 4.8-10.6 10.6-15.3 17 3.9 5.2 7.6 10.5 11 15.8 5-7.7 10.6-14.4 16.1-19.2 6.5-5.6 12.6-8.3 17.6-8.3 5 0 11.1 2.7 17.6 8.3 5.5 4.8 11.1 11.5 16.1 19.2z"
       id="path2"
       style="fill:#00064b;fill-opacity:1" />
  </g>
</svg>
