<?xml version="1.0" encoding="UTF-8" standalone="no"?>
<svg
   viewBox="0 0 512 512"
   style="height: 347px; width: 347px;"
   version="1.1"
   id="svg1"
   sodipodi:docname="salsaDancingCondition.svg"
   inkscape:version="1.4 (e7c3feb1, 2024-10-09)"
   xmlns:inkscape="http://www.inkscape.org/namespaces/inkscape"
   xmlns:sodipodi="http://sodipodi.sourceforge.net/DTD/sodipodi-0.dtd"
   xmlns="http://www.w3.org/2000/svg"
   xmlns:svg="http://www.w3.org/2000/svg">
  <defs
     id="defs1" />
  <sodipodi:namedview
     id="namedview1"
     pagecolor="#ffffff"
     bordercolor="#000000"
     borderopacity="0.25"
     inkscape:showpageshadow="2"
     inkscape:pageopacity="0.0"
     inkscape:pagecheckerboard="0"
     inkscape:deskcolor="#d1d1d1"
     inkscape:zoom="0.85742184"
     inkscape:cx="274.6606"
     inkscape:cy="317.23008"
     inkscape:window-width="1712"
     inkscape:window-height="1027"
     inkscape:window-x="159"
     inkscape:window-y="25"
     inkscape:window-maximized="0"
     inkscape:current-layer="svg1" />
  <rect
     fill="#6b00ca"
     fill-opacity="1"
     height="512"
     width="512"
     rx="32"
     ry="32"
     id="rect1"
     style="fill:#1c0036;fill-opacity:1" />
  <path
     style="fill:#ff9900;fill-opacity:1;stroke:#ff6787;stroke-width:0;stroke-linecap:round"
     d="m 104.08064,87.2318 c 1.30006,-14.312304 11.50602,-26.462896 21.08876,-27.750971 9.58274,-1.288075 20.86521,8.921816 29.3146,19.471347 8.4494,10.54953 12.25192,21.739074 13.322,36.207804 1.07009,14.46874 -6.55636,26.90077 -15.0775,29.29935 -8.52114,2.39858 -27.30972,-8.01153 -34.97673,-16.9387 -7.66701,-8.92716 -14.97119,-25.97653 -13.67113,-40.28883 z"
     id="path1"
     sodipodi:nodetypes="zzzzzzz" />
  <path
     style="fill:#ff9900;fill-opacity:1;stroke:#ff6787;stroke-width:0;stroke-linecap:round"
     d="m 333.58206,109.68609 c 4.4748,-17.616394 15.9658,-35.518674 31.9377,-44.024907 10.61977,-5.65581 22.6267,-8.455544 31.04717,0.236258 7.28473,7.519483 6.83975,26.507754 3.12701,36.272899 -4.89193,12.8667 -9.82479,19.56175 -21.09567,27.38324 -10.56339,7.33051 -27.19276,14.0608 -38.05735,7.0844 -8.51218,-5.46589 -9.44928,-17.14755 -6.95886,-26.95189 z"
     id="path2"
     sodipodi:nodetypes="sssssss" />
  <path
     style="fill:#ff9900;fill-opacity:1;stroke:#ff6787;stroke-width:0;stroke-linecap:round"
     d="m 57.576045,176.29769 -29.896144,79.01897 10.78813,36.38128 37.215872,-87.97984 41.047127,-7.61813 -30.583666,125.89092 9.829602,39.31263 96.558774,-18.00044 31.50638,119.21645 20.7476,-59.47666 -25.44145,-90.72158 -62.46881,-19.94148 13.08774,-101.85187 68.66386,-22.0455 19.01779,-86.679865 -12.82008,-46.140271 -22.90668,104.758086 -62.9001,19.785 -31.67975,5.71357 z"
     id="path3"
     sodipodi:nodetypes="cccccccccccccccccccc" />
  <path
     style="fill:#ff9900;fill-opacity:1;stroke:#ff6787;stroke-width:0;stroke-linecap:round"
     d="M 94.024168,368.57446 45.298298,474.08243 114.66258,400.24831 Z"
     id="path4"
     sodipodi:nodetypes="cccc" />
  <path
     style="fill:#ff9900;fill-opacity:1;stroke:#ff6787;stroke-width:0;stroke-linecap:round"
     d="m 273.79351,49.909301 10.22818,101.880169 62.11058,0.56211 37.94317,-2.85177 74.12202,33.07743 14.48193,115.13945 -22.8232,-18.65065 -8.00714,-75.36864 -55.14892,-23.44655 6.39493,114.73447 78.27753,13.25072 -31.88582,55.80861 -42.91729,25.13954 -41.61103,4.9363 -35.80876,-9.19244 -21.40525,-12.81613 -28.49579,95.63091 -17.0192,-41.20727 28.46189,-101.96831 49.05299,-20.59598 5.23311,-125.32998 -69.28618,-0.0314 -4.8936,-62.22859 z"
     id="path5"
     sodipodi:nodetypes="cccccccccccccccccccccccc" />
  <path
     style="fill:#ff9900;fill-opacity:1;stroke:#ff6787;stroke-width:0;stroke-linecap:round"
     d="m 401.66893,408.33296 28.44156,-26.86763 31.15028,102.99256 z"
     id="path6"
     sodipodi:nodetypes="cccc" />
</svg>
