<?xml version="1.0" encoding="UTF-8" standalone="no"?>
<svg
   viewBox="0 0 512 512"
   style="height: 348px; width: 348px;"
   version="1.1"
   id="svg1"
   sodipodi:docname="astralRift.svg"
   inkscape:version="1.4 (e7c3feb1, 2024-10-09)"
   xmlns:inkscape="http://www.inkscape.org/namespaces/inkscape"
   xmlns:sodipodi="http://sodipodi.sourceforge.net/DTD/sodipodi-0.dtd"
   xmlns="http://www.w3.org/2000/svg"
   xmlns:svg="http://www.w3.org/2000/svg">
  <defs
     id="defs1" />
  <sodipodi:namedview
     id="namedview1"
     pagecolor="#ffffff"
     bordercolor="#000000"
     borderopacity="0.25"
     inkscape:showpageshadow="2"
     inkscape:pageopacity="0.0"
     inkscape:pagecheckerboard="0"
     inkscape:deskcolor="#d1d1d1"
     inkscape:zoom="1.7148438"
     inkscape:cx="257.45785"
     inkscape:cy="255.99999"
     inkscape:window-width="1632"
     inkscape:window-height="1027"
     inkscape:window-x="0"
     inkscape:window-y="25"
     inkscape:window-maximized="0"
     inkscape:current-layer="svg1" />
  <rect
     fill="#6b00ca"
     fill-opacity="1"
     height="512"
     width="512"
     rx="32"
     ry="32"
     id="rect1"
     style="fill:#4c0900;fill-opacity:1" />
  <g
     class=""
     transform="translate(0,0)"
     style=""
     id="g1">
    <path
       sodipodi:type="spiral"
       style="fill:none;fill-rule:evenodd;stroke:#e667ff;stroke-width:27;stroke-dasharray:none;stroke-opacity:1;stroke-linecap:round"
       id="path2"
       sodipodi:cx="266.49658"
       sodipodi:cy="242.58769"
       sodipodi:expansion="1"
       sodipodi:revolution="3"
       sodipodi:radius="238.29172"
       sodipodi:argument="-19.480331"
       sodipodi:t0="0.12882906"
       d="m 259.59364,272.50043 c -23.91971,3.95439 -41.95827,-19.30521 -42.35891,-41.28085 -0.63026,-34.57107 32.47212,-58.84779 65.09515,-57.24285 45.11489,2.21949 75.9248,45.69499 72.12678,88.90944 -4.89038,55.64347 -58.93765,93.08779 -112.72373,87.01071 C 175.56196,342.42048 131.43543,277.70693 139.83828,213.35886 149.85409,136.65895 225.28613,85.823436 300.19059,96.580278 387.42117,109.10724 444.98227,195.28966 431.85311,280.74688 416.8334,378.50963 319.87969,442.80739 223.87222,427.29333 115.57605,409.79352 44.533866,302.05405 62.441829,195.49815 82.412693,76.667569 200.94832,-1.1247053 318.0513,19.183826 373.16819,28.742447 423.63357,58.732982 458.93392,102.0501"
       transform="translate(1.166287,37.321183)" />
  </g>
  <g
     inkscape:groupmode="layer"
     id="layer1"
     inkscape:label="Layer 1" />
</svg>
