<?xml version="1.0" encoding="UTF-8" standalone="no"?>
<svg
   viewBox="0 0 512 512"
   style="height: 348px; width: 348px;"
   version="1.1"
   id="svg1"
   sodipodi:docname="atomicCloud.svg"
   inkscape:version="1.4 (e7c3feb1, 2024-10-09)"
   xmlns:inkscape="http://www.inkscape.org/namespaces/inkscape"
   xmlns:sodipodi="http://sodipodi.sourceforge.net/DTD/sodipodi-0.dtd"
   xmlns="http://www.w3.org/2000/svg"
   xmlns:svg="http://www.w3.org/2000/svg">
  <defs
     id="defs1" />
  <sodipodi:namedview
     id="namedview1"
     pagecolor="#ffffff"
     bordercolor="#000000"
     borderopacity="0.25"
     inkscape:showpageshadow="2"
     inkscape:pageopacity="0.0"
     inkscape:pagecheckerboard="0"
     inkscape:deskcolor="#d1d1d1"
     inkscape:zoom="0.8574219"
     inkscape:cx="295.07061"
     inkscape:cy="263.58086"
     inkscape:window-width="1920"
     inkscape:window-height="1027"
     inkscape:window-x="0"
     inkscape:window-y="25"
     inkscape:window-maximized="1"
     inkscape:current-layer="svg1" />
  <rect
     fill="#8800ff"
     fill-opacity="1"
     height="512"
     width="512"
     rx="32"
     ry="32"
     id="rect1"
     style="fill:#003d2e;fill-opacity:1" />
  <g
     class=""
     transform="translate(0,0)"
     style=""
     id="g1" />
  <g
     id="g2"
     transform="translate(-1.166287,-11.66287)">
    <path
       d="m 286.18958,48.043605 c -18.823,-0.262 -38.412,6.822 -51.54,20.02 l -5.858,5.89 -6.535,-5.127 c -35.796,-28.083 -78.147,-22.538 -98.727,10.39 l -3.465,5.547 -6.398,-1.357 c -27.027002,-5.737 -53.600002,4.882 -69.373002,23.047005 -15.776,18.165 -21.16,42.634 -5.937,68.43 l 3.68,6.234 -5.12,5.122 c -7.12,7.122 -9.71,16.235 -8.956,26.824 0.753,10.59 5.242,22.277 12.04,31.98 6.8,9.705 15.853,17.3 24.67,20.634 8.82,3.333 16.93,3.112 25.68,-2.877 l 6.626,-4.538 5.480002,5.868 c 18.752,20.07 63.427,19.456 81.504,-9.315 l 4.967,-7.906 7.91,4.96 c 9.652,6.05 21.095,6.628 32.078,3.243 10.983,-3.384 21.017,-10.924 26.445,-19.56 l 8.34,-13.272 7.707,13.648 c 5.984,10.6 21.754,20.7 39.238,24.517 17.485,3.818 35.716,1.47 46.955,-7.793 l 7.116,-5.863 5.96,7.036 c 13.405,15.834 34.384,19.713 51.292,15.234 8.453,-2.24 15.61,-6.562 20.1,-11.894 4.49,-5.332 6.64,-11.394 5.548,-19.36 l -1.412,-10.292 10.386,-0.317 c 14.28,-0.435 23.67,-5.757 30.195,-13.635 6.527,-7.877 9.99,-18.775 9.966,-30.103 -0.05,-22.658 -12.994,-45.11 -39.104,-48.66 l -9.843,-1.34 1.936,-9.743 c 1.49,-7.49 -1.057,-16.514 -7.54,-25.764005 -6.485,-9.25 -16.708,-18.272 -28.37,-24.904 -11.662,-6.634 -24.726,-10.866 -36.596,-11.388 -11.87,-0.522 -22.266,2.385 -30.62,9.863 l -7.743,6.934 -6.072,-8.437 c -10.336,-14.36 -27.786,-21.715 -46.61,-21.976 z m -23.13,207.613005 c -7.79,7.932 -10.3148,23.02858 -21.2178,26.38758 -12.57,3.874 -34.0972,-5.04458 -47.0322,-10.37158 -13.607,16.66 -33.646,25.044 -53.58,25.658 0.803,2.694 2.022,5.36 3.65,7.885 4.48,6.947 11.786,12.436 20.377,14.188 8.59,1.752 18.766,0.2 30.504,-8.578 l 9.133,-6.828 4.9,10.295 c 1.805,3.793 10.955,9.652 22.417,10.94 11.462,1.286 23.836,-1.518 30.982,-8.206 l 7.2,-6.737 6.34,7.55 c 7.687,9.153 18.164,11.31 28.223,9.768 10.06,-1.54 18.25,-8.15 19.394,-10.936 l 4.225,-10.297 9.41,5.943 c 9.343,5.9 17.365,6.48 24.47,4.494 7.103,-1.987 13.382,-6.983 17.39,-13.273 3.672,-5.763 5.297,-12.387 4.51,-18.327 -7.83,-2.86 -15.302,-7.21 -21.903,-13.22 -16.45,9.763 -44.4602,18.2292 -63.2162,14.1342 -16.836,-3.676 -25.2878,-18.8872 -36.1778,-30.4672 z"
       fill="#85ff00"
       fill-opacity="1"
       id="path1"
       style="display:none;fill:#b6ff1b;fill-opacity:1"
       sodipodi:nodetypes="cccccccccccccccccccccccccccccsccccccccccscccccccccccccccccccccccccccc" />
    <path
       d="m 262.15431,334.86332 c -4.50579,4.28094 -9.65893,6.46612 -14.81148,7.08211 v 37.11689 c -22.98535,0.89655 -43.62699,4.08713 -59.50669,8.93274 -9.43888,2.8808 -17.18196,6.25724 -23.01213,10.48243 -2.91654,2.11262 -5.37551,4.41992 -7.3874,7.43967 -2.01073,3.01976 -3.69254,7.2547 -3.69254,12.16933 0,4.91466 1.66842,9.14072 3.67507,12.16933 2.00665,3.02863 4.47203,5.33681 7.38624,7.468 5.82725,4.26412 13.57209,7.71756 23.01212,10.64705 11.76979,3.65523 26.15571,6.41124 42.16931,7.96539 -9.22697,18.5903 -21.12715,34.25733 -33.1455,44.63975 h 124.74286 c -11.87166,-10.64706 -23.14021,-26.2539 -31.85489,-44.52824 16.59691,-1.52759 31.50211,-4.31192 43.62583,-8.07603 9.43945,-2.93124 17.18487,-6.3838 23.01212,-10.64704 2.91421,-2.13295 5.37901,-4.43937 7.38624,-7.46976 2.00607,-3.02683 3.65586,-7.25379 3.65586,-12.16932 0,-4.91199 -1.66318,-9.1487 -3.67449,-12.16934 -2.01131,-3.01799 -4.47086,-5.32617 -7.38565,-7.43879 -5.83134,-4.2243 -13.57559,-7.60251 -23.01388,-10.48243 -16.09335,-4.91199 -37.07554,-8.11583 -60.43347,-8.96105 v -36.08848 c -3.76821,-1.42493 -7.46133,-4.02694 -10.74811,-8.08044 z m 11.13058,60.71035 c 22.60696,0.87266 42.85041,4.03401 57.90465,8.62916 8.91261,2.71886 16.03105,5.99528 20.46583,9.20887 2.21797,1.60635 3.74783,3.22156 4.43884,4.25972 0.17348,0.2593 0.163,0.28055 0.23751,0.4142 -0.0756,0.13807 -0.0716,0.16637 -0.25497,0.44252 -0.69625,1.05054 -2.2203,2.69053 -4.43885,4.31458 -4.4371,3.24809 -11.55555,6.55461 -20.46583,9.32213 -12.85373,3.99155 -29.49721,6.93254 -48.1549,8.26895 -5.13218,-14.16686 -8.6297,-29.3949 -9.73345,-44.86013 z m -26.28785,0.0532 c -1.09443,15.47409 -4.74912,30.66142 -10.05944,44.72385 -18.17277,-1.37625 -34.37906,-4.28185 -46.95394,-8.18663 -8.91145,-2.76754 -16.02874,-6.07407 -20.46641,-9.32128 -2.21797,-1.62229 -3.74202,-3.26227 -4.43826,-4.31371 -0.18629,-0.28144 -0.18047,-0.30445 -0.2544,-0.4425 0.0734,-0.13277 0.078,-0.15051 0.25382,-0.41599 0.69158,-1.03549 2.20341,-2.65157 4.42079,-4.25704 4.43593,-3.21447 11.55322,-6.4909 20.46583,-9.21064 14.85921,-4.53582 34.77608,-7.65385 57.0326,-8.57606 z"
       fill="#85ff00"
       fill-opacity="1"
       id="path2"
       style="display:none;fill:#b6ff1b;fill-opacity:1;stroke-width:0.717789"
       sodipodi:nodetypes="ccccccsscccccccccscccccccscccccscccsccccccccccc" />
  </g>
  <path
     style="fill:#b6ff1b;fill-opacity:1;stroke:#ff6787;stroke-width:0;stroke-linecap:round"
     d="m 437.51752,497.46667 c 19.20791,1.08544 -15.1343,-16.44882 -35.10475,-50.8873 -15.60827,-26.91602 -3.33815,-68.92313 23.11156,-110.47151 21.7133,-34.10821 -46.75055,27.09443 -42.14261,89.77479 2.38451,32.43579 38.21948,70.68459 54.1358,71.58402 z"
     id="path5"
     sodipodi:nodetypes="sssss" />
  <path
     style="fill:#b6ff1b;fill-opacity:1;stroke:#ff6787;stroke-width:0;stroke-linecap:round"
     d="m 387.05873,474.66565 c 28.276,14.37228 -14.7301,-14.81734 -28.99887,-46.50779 -26.14856,-58.07503 12.83984,-72.01499 13.84141,-117.37385 0.32156,-14.56215 -91.46425,109.6874 15.15746,163.88164 z"
     id="path4"
     sodipodi:nodetypes="ssss" />
  <path
     style="fill:#b6ff1b;fill-opacity:1;stroke:#ff6787;stroke-width:0;stroke-linecap:round"
     d="m 323.98332,441.26098 c 20.32463,12.15126 -7.77341,-28.0956 -19.56699,-49.85528 -10.98794,-20.27323 5.75111,-81.93899 11.45003,-105.59602 8.80251,-36.54038 -68.52207,109.63197 8.11696,155.4513 z"
     id="path8"
     sodipodi:nodetypes="ssss" />
  <path
     style="fill:#b6ff1b;fill-opacity:1;stroke:#ff6787;stroke-width:0;stroke-linecap:round"
     d="m 205.7054,441.14848 c -20.97179,15.51027 14.97475,-28.73531 30.45406,-51.59959 18.24208,-26.94513 -2.51242,-69.31988 -9.6299,-108.82956 -5.30044,-29.42324 9.65263,5.21584 24.70418,37.78104 11.07708,23.96613 41.28187,58.44519 -45.52834,122.64811 z"
     id="path7"
     sodipodi:nodetypes="sssss" />
  <path
     style="fill:#b6ff1b;fill-opacity:1;stroke:#ff6787;stroke-width:0;stroke-linecap:round"
     d="m 142.06313,473.17277 c -19.96637,11.94981 36.55615,-43.19139 50.24276,-66.14077 16.12943,-27.04541 -23.89667,-104.02176 -23.89667,-104.02176 0,0 29.38286,24.72863 36.29858,49.42191 10.40563,37.15434 16.7982,73.19432 -62.64467,120.74062 z"
     id="path3"
     sodipodi:nodetypes="sscss" />
  <path
     style="fill:#b6ff1b;fill-opacity:1;stroke:#ff6787;stroke-width:0;stroke-linecap:round"
     d="m 106.28157,486.91043 c -42.188771,39.31556 11.66253,-25.76569 25.44039,-45.84629 33.93059,-49.4523 -25.3009,-100.30302 -18.13207,-105.20257 13.7491,-9.39684 50.69952,56.14198 39.78866,82.14565 -15.14269,36.08931 -25.32716,48.61599 -47.09698,68.90321 z"
     id="path6"
     sodipodi:nodetypes="sssss" />
  <path
     style="fill:#b6ff1b;stroke:#ff6787;stroke-width:0;stroke-linecap:round"
     d="m 268.00445,230.18002 c -9.46868,-0.20749 -39.80786,40.578 -61.76979,42.23254 -21.96193,1.65456 -46.9922,-26.00408 -44.7282,-34.57674 2.23585,-8.4661 -22.53139,43.94253 -46.04405,38.5652 -20.823431,-4.7623 -11.85689,-31.15683 -22.159458,-35.64347 -11.368262,-1.54951 -41.396961,-10.45363 -44.902042,-28.62278 -3.975061,-20.60535 44.728404,-24.81999 51.316624,-24.30235 6.839996,0.53742 -42.046193,-17.82681 -27.983774,-44.1083 9.346653,-17.46811 63.33473,-4.9722 66.39842,-2.18263 4.10035,3.73348 8.10593,-37.79639 26.59727,-43.597365 23.52515,-7.38015 64.06289,55.764205 64.06289,55.764205 0,0 17.92219,-81.870339 40.41985,-83.313462 26.3327,-1.689124 52.25381,80.547822 50.71632,84.590272 0,0 20.94289,-70.925196 50.39188,-61.939867 24.14496,7.366987 24.71888,34.103057 22.02507,42.758517 -2.44152,7.84481 29.34463,-27.01967 57.25106,-6.25207 21.89064,16.29074 -5.52844,54.62211 -14.57147,53.42022 -14.69396,-1.95295 41.79775,7.90517 40.82004,22.14215 -1.18467,17.25058 -28.78886,25.11513 -37.90432,31.32305 -5.84927,3.98354 -6.49174,23.58228 -20.41003,35.64344 -17.97591,15.57738 -49.9374,-30.46341 -50.35044,-39.56726 -0.26392,-5.81716 -22.31889,33.47925 -41.20309,39.02722 -17.13029,5.03268 -51.51123,-41.21892 -57.97276,-41.36052 z"
     id="path9"
     sodipodi:nodetypes="sssscscscscscssssssssss" />
  <path
     style="fill:#b6ff1b;stroke:#ff6787;stroke-width:0;stroke-linecap:round"
     d="m 76.350355,88.744973 40.820035,-23.32574 6.99773,44.318907 z"
     id="path10"
     sodipodi:nodetypes="cccc" />
  <path
     style="fill:#b6ff1b;stroke:#ff6787;stroke-width:0;stroke-linecap:round"
     d="m 408.00034,110.24551 1.16629,-48.984056 37.32118,26.8246 z"
     id="path11"
     sodipodi:nodetypes="cccc" />
  <path
     style="fill:#b6ff1b;stroke:#ff6787;stroke-width:0;stroke-linecap:round"
     d="m 181.43167,42.883851 43.70854,-9.071584 -8.24689,51.130745 z"
     id="path12" />
  <path
     style="fill:#b6ff1b;stroke:#ff6787;stroke-width:0;stroke-linecap:round"
     d="m 309.25854,34.636957 15.6691,46.182608 23.0913,-44.53323 z"
     id="path13" />
</svg>
