<?xml version="1.0" encoding="UTF-8" standalone="no"?>
<svg
   viewBox="0 0 512 512"
   style="height: 348px; width: 348px;"
   version="1.1"
   id="svg1"
   sodipodi:docname="blackVultureWeather.svg"
   inkscape:version="1.4 (e7c3feb1, 2024-10-09)"
   xmlns:inkscape="http://www.inkscape.org/namespaces/inkscape"
   xmlns:sodipodi="http://sodipodi.sourceforge.net/DTD/sodipodi-0.dtd"
   xmlns="http://www.w3.org/2000/svg"
   xmlns:svg="http://www.w3.org/2000/svg">
  <defs
     id="defs1" />
  <sodipodi:namedview
     id="namedview1"
     pagecolor="#ffffff"
     bordercolor="#000000"
     borderopacity="0.25"
     inkscape:showpageshadow="2"
     inkscape:pageopacity="0.0"
     inkscape:pagecheckerboard="0"
     inkscape:deskcolor="#d1d1d1"
     inkscape:zoom="0.60628883"
     inkscape:cx="246.58215"
     inkscape:cy="127.00218"
     inkscape:window-width="1200"
     inkscape:window-height="1027"
     inkscape:window-x="0"
     inkscape:window-y="25"
     inkscape:window-maximized="0"
     inkscape:current-layer="layer1" />
  <rect
     fill="#d0021b"
     fill-opacity="1"
     height="512"
     width="512"
     rx="32"
     ry="32"
     id="rect1"
     style="fill:#ff0011;fill-opacity:1" />
  <g
     class=""
     transform="translate(0,0)"
     style=""
     id="g1">
    <path
       d="m 363.188,28.063 c -34.372,0 -62.25,27.863 -62.25,62.218 0,2.92 0.204,5.782 0.593,8.595 -17.072,3.958 -33.287,12.576 -46.592,25.875 -12.052,12.046 -30.82,44.714 -50.813,83.625 L 120.25,272.28 152.28,273 67.562,316.406 141.594,312.844 103.156,338.5 143,336.125 c -1.84,4.05 -3.69,8.165 -5.406,11.97 l -121.688,66.25 46.75,-1.283 -43.656,48.032 46.75,-17.03 -3.625,32.873 126.938,-104.28 c 5.69,16.434 15.305,28.105 27.156,32.624 l 32.124,59.47 c -20.13,2.938 -39.952,12.047 -55.063,26.47 h 129.5 C 309.693,474.213 290.106,465.455 269.156,463.938 L 237.75,405.782 c 21.746,-6.568 46.638,-34.228 67.875,-92.28 19.033,-10.784 34.323,-20.795 42.375,-28.844 33.67,-33.656 72.28,-103.9 53.844,-145.687 0.006,-0.006 0.025,0.004 0.03,0 38.314,-5.095 66.074,-7.915 86.438,21.53 5.48,-46.96 -25.07,-65.864 -57.406,-74.53 -1.616,-6.128 -4.74,-11.664 -8.97,-16.157 -8.466,-24.3 -31.55,-41.75 -58.748,-41.75 z m 31.53,48.593 c 10.484,0 18.75,8.3 18.75,18.78 0,10.482 -8.267,18.783 -18.75,18.783 -10.482,0 -18.78,-8.302 -18.78,-18.782 0,-10.48 8.297,-18.782 18.78,-18.782 z"
       fill="#000000"
       fill-opacity="1"
       id="path1"
       style="display:none" />
  </g>
  <path
     style="fill:#000000;fill-opacity:1;stroke:#ff6787;stroke-width:0;stroke-linecap:round"
     d="M 410.07261,450.14318 355.13776,401.02751 351.07565,344.47919 236.46767,192.04231 259.77653,96.31866 c 0,0 53.27964,-30.278572 80.64356,-25.100578 34.01578,6.43671 59.76519,26.324768 78.64338,53.695498 34.28248,49.70478 57.86023,169.19062 57.86023,169.19062 l -27.95416,-32.8028 25.0074,55.70286 -31.1771,-29.91192 31.08493,70.50838 -30.43779,-35.78397 26.57276,74.55563 -32.91088,-39.35333 24.82844,65.7024 -37.402,-36.48247 32.52147,61.11708 -51.44878,-66.71182 45.53164,78.38574 -60.83345,-73.92076 47.41277,79.59225 -67.69241,-80.50137 z"
     id="path2"
     sodipodi:nodetypes="cccccssccccccccccccccccc" />
  <path
     style="fill:#000000;fill-opacity:1;stroke:#ff6787;stroke-width:0;stroke-linecap:round"
     d="M 245.61284,93.759143 210.67151,72.83752 c 0,0 4.70654,-13.443488 2.74274,-19.897508 -3.24921,-10.678544 -11.83911,-20.855953 -22.62756,-26.530014 -15.67392,-8.243502 -36.15116,-9.860381 -54.16902,-7.235458 -19.56552,2.850392 -41.158417,9.998013 -52.797648,24.118193 -9.10765,11.048974 -9.978471,23.284885 -11.041378,36.899108 -0.610734,7.822577 7.895645,24.127689 7.895645,24.127689 l -13.706329,13.2174 c 0,0 -27.46166,22.90773 -31.332195,36.59274 -2.578027,9.11511 2.179567,23.87236 9.169204,32.83036 C 53.596422,198.22726 82.055,208.18726 82.055,208.18726 L 70.926672,183.33674 c 0,0 13.41881,-17.48025 21.191998,-25.24485 7.359603,-7.35148 14.15193,-16.47177 23.92382,-20.03802 11.59582,-4.2319 37.03159,-0.0972 37.03159,-0.0972 l 4.79978,12.66205 c 0,0 -8.19962,18.15065 -9.59956,27.73593 -2.18538,14.96303 -0.82463,30.35003 2.05705,45.22161 3.01171,15.54274 10.65577,30.11002 15.77072,45.22161 6.58285,19.44833 9.98574,39.88268 19.19914,58.48662 7.98179,16.11702 19.54207,30.72867 30.85577,45.22161 6.72756,8.61805 16.38975,15.47821 21.94188,24.72115 8.06879,13.43255 15.77072,43.41275 15.77072,43.41275 l -2.74272,26.53002 -26.74167,7.53692 -22.97042,5.4266 -10.62808,5.12512 43.19806,-5.72807 -19.19915,14.16944 32.22715,-10.25024 -0.6857,11.45615 17.1421,-21.10343 29.4844,1.20591 -30.17008,-12.66205 2.74273,-27.13296 26.74167,-25.32411 41.70171,28.19689 -0.40767,33.35312 -25.18047,9.59866 -18.7173,5.75919 -2.88174,7.20434 30.85577,-10.85319 -4.7998,10.25023 22.62757,-13.86795 1.37136,11.45614 10.68826,-13.3 39.36665,-2.37682 -42.78572,-7.84229 -0.41234,-30.14388 -4.89724,-34.60929 -4.51577,-50.35561 -116.8217,-154.56334 14.25316,-56.72365 z"
     id="path3"
     sodipodi:nodetypes="ccsssssccssccssccsssssscccccccccccccccccccccccccccccccc" />
  <g
     inkscape:groupmode="layer"
     id="layer1"
     inkscape:label="Layer 1">
    <path
       style="fill:#ff0011;fill-opacity:1;stroke:#ff6787;stroke-width:0;stroke-linecap:round"
       d="M 84.61018,87.981328 137.2357,26.215371 c 0,0 15.25429,55.568527 -2.99789,70.297212 -13.0626,10.540927 -49.62763,-8.531255 -49.62763,-8.531255 z"
       id="path4"
       sodipodi:nodetypes="ccsc" />
  </g>
</svg>
