<?xml version="1.0" encoding="UTF-8" standalone="no"?>
<svg
   viewBox="0 0 512 512"
   style="height: 348px; width: 348px;"
   version="1.1"
   id="svg1"
   sodipodi:docname="circusWeather.svg"
   inkscape:version="1.4 (e7c3feb1, 2024-10-09)"
   xmlns:inkscape="http://www.inkscape.org/namespaces/inkscape"
   xmlns:sodipodi="http://sodipodi.sourceforge.net/DTD/sodipodi-0.dtd"
   xmlns="http://www.w3.org/2000/svg"
   xmlns:svg="http://www.w3.org/2000/svg">
  <defs
     id="defs1" />
  <sodipodi:namedview
     id="namedview1"
     pagecolor="#ffffff"
     bordercolor="#000000"
     borderopacity="0.25"
     inkscape:showpageshadow="2"
     inkscape:pageopacity="0.0"
     inkscape:pagecheckerboard="0"
     inkscape:deskcolor="#d1d1d1"
     inkscape:zoom="1.7148437"
     inkscape:cx="254.54214"
     inkscape:cy="260.66515"
     inkscape:window-width="1440"
     inkscape:window-height="1027"
     inkscape:window-x="0"
     inkscape:window-y="25"
     inkscape:window-maximized="0"
     inkscape:current-layer="svg1" />
  <rect
     fill="#6b00ca"
     fill-opacity="1"
     height="512"
     width="512"
     rx="32"
     ry="32"
     id="rect1"
     style="fill:#fdffcc;fill-opacity:1" />
  <g
     class=""
     transform="translate(0,0)"
     style=""
     id="g1" />
  <g
     inkscape:groupmode="layer"
     id="layer1"
     inkscape:label="Layer 1">
    <path
       style="fill:#fe1800;fill-opacity:1;stroke:#e667ff;stroke-width:0;stroke-linecap:round;stroke-dasharray:none"
       d="M 248.94289,34.408234 375.64519,57.151626 249.4726,76.621153 Z"
       id="path1"
       sodipodi:nodetypes="cccc" />
    <path
       style="fill:#fe1800;fill-opacity:1;stroke:#e667ff;stroke-width:0;stroke-linecap:round;stroke-dasharray:none"
       d="m 249.4726,76.621153 c 0,0 39.59748,58.877397 74.16153,91.516137 47.10694,44.48295 141.7571,62.76018 141.7571,62.76018 l -84.01707,21.89222 c 0,0 -52.71798,-18.80726 -90.05327,-67.11182 C 270.00677,158.10158 249.4726,76.621153 249.4726,76.621153 Z"
       id="path2"
       sodipodi:nodetypes="csccsc" />
    <path
       style="fill:#fe1800;fill-opacity:1;stroke:#e667ff;stroke-width:0;stroke-linecap:round;stroke-dasharray:none"
       d="m 249.4726,76.621153 c 0,0 -60.96215,79.391527 -86.8749,100.667737 C 123.59481,209.31302 42.350106,230.6733 42.350106,230.6733 l 76.810134,24.4043 c 0,0 54.57471,-31.46368 75.75069,-59.4855 C 219.21295,163.43364 249.4726,76.621153 249.4726,76.621153 Z"
       id="path3"
       sodipodi:nodetypes="csccsc" />
    <path
       style="fill:#fe1800;fill-opacity:1;stroke:#e667ff;stroke-width:0;stroke-linecap:round;stroke-dasharray:none"
       d="m 250.53207,78.146413 c 0,0 -16.69017,78.175787 -28.60516,115.157807 -9.18818,28.51852 -38.66994,79.31397 -38.66994,79.31397 0,0 53.50224,11.1853 72.57235,10.67688 19.07009,-0.5084 57.74002,-9.91424 57.74002,-9.91424 0,0 -42.47185,-44.90968 -51.91305,-77.02606 C 250.91677,159.82185 250.53207,78.146413 250.53207,78.146413 Z"
       id="path4"
       sodipodi:nodetypes="cscscsc" />
    <path
       style="fill:#fe1800;fill-opacity:1;stroke:#e667ff;stroke-width:0;stroke-linecap:round;stroke-dasharray:none"
       d="m 37.372485,450.42948 0.987984,-217.21816 17.137707,57.02505 26.674906,-42.6434 12.808703,48.59719 19.489605,-38.40139 11.9418,49.76873 -11.96709,169.31314 c 0,0 -50.492606,-4.39703 -62.604631,-7.39038 -9.394023,-2.32162 -14.468984,-19.05078 -14.468984,-19.05078 z"
       id="path5"
       sodipodi:nodetypes="ccccccccsc" />
    <path
       style="fill:#fe1800;fill-opacity:1;stroke:#e667ff;stroke-width:0;stroke-linecap:round;stroke-dasharray:none"
       d="m 181.10375,279.54385 -22.1859,40.32414 -21.60275,159.86856 31.80516,2.67167 c 0,0 10.16359,-13.62491 18.2819,-22.16241 19.06814,-20.05271 56.45203,-122.76507 56.45203,-122.76507 0,0 25.11834,104.78852 50.29999,124.51534 9.01646,7.06333 32.59629,22.74472 32.59629,22.74472 l 40.48662,-4.71289 -22.2336,-157.97302 -29.81447,-39.59489 -25.4391,39.85392 -22.78919,-36.93778 -24.90914,41.312 -17.48938,-42.28404 -22.78919,37.4238 z"
       id="path7"
       sodipodi:nodetypes="ccccscscccccccccc" />
    <path
       style="fill:#fe1800;fill-opacity:1;stroke:#e667ff;stroke-width:0;stroke-linecap:round;stroke-dasharray:none"
       d="m 119.27177,258.32168 59.18207,18.79205 -18.54935,32.56358 -7.94971,-34.99369 -22.78921,27.70333 z"
       id="path8"
       sodipodi:nodetypes="cccccc" />
    <path
       style="fill:#fe1800;fill-opacity:1;stroke:#e667ff;stroke-width:0;stroke-linecap:round;stroke-dasharray:none"
       d="m 465.49271,231.41458 7.36658,218.13913 c 0,0 -8.34677,15.74442 -12.82588,17.59271 -16.39847,6.76673 -68.56718,9.47598 -68.56718,9.47598 l -16.80741,-161.82772 10.01719,-57.44503 27.4996,38.233 10.01021,-51.78221 25.49854,42.54776 z"
       id="path9"
       sodipodi:nodetypes="ccsccccccc" />
    <path
       style="fill:#fe1800;fill-opacity:1;stroke:#e667ff;stroke-width:0;stroke-linecap:round;stroke-dasharray:none"
       d="m 380.9067,255.70026 -8.4797,45.71465 -20.5504,-31.19341 -9.12855,39.45581 -26.5585,-34.25691 z"
       id="path10"
       sodipodi:nodetypes="cccccc" />
  </g>
</svg>
