<?xml version="1.0" encoding="UTF-8" standalone="no"?>
<svg
   version="1.2"
   viewBox="0 0 512 512"
   width="512"
   height="512"
   id="svg1"
   sodipodi:docname="rainDelay.svg"
   inkscape:version="1.4 (e7c3feb1, 2024-10-09)"
   xmlns:inkscape="http://www.inkscape.org/namespaces/inkscape"
   xmlns:sodipodi="http://sodipodi.sourceforge.net/DTD/sodipodi-0.dtd"
   xmlns="http://www.w3.org/2000/svg"
   xmlns:svg="http://www.w3.org/2000/svg">
  <defs
     id="defs1" />
  <sodipodi:namedview
     id="namedview1"
     pagecolor="#ffffff"
     bordercolor="#000000"
     borderopacity="0.25"
     inkscape:showpageshadow="2"
     inkscape:pageopacity="0.0"
     inkscape:pagecheckerboard="0"
     inkscape:deskcolor="#d1d1d1"
     inkscape:zoom="1.7148438"
     inkscape:cx="256.87471"
     inkscape:cy="255.99999"
     inkscape:window-width="1328"
     inkscape:window-height="1027"
     inkscape:window-x="0"
     inkscape:window-y="25"
     inkscape:window-maximized="0"
     inkscape:current-layer="svg1" />
  <title
     id="title1">rainDelay</title>
  <style
     id="style1">
		.s0 { fill: #610066 } 
		.s1 { fill: #7aaffc } 
	</style>
  <g
     id="Layer 1">
    <path
       id="Path 0"
       class="s0"
       d="m20.5 2c-2.8 1-7.2 3.8-9.8 6.2-2.8 2.5-6 6.6-7.5 9.8l-2.7 5.5c-0.5 458.4-0.5 462.6 1.4 467.8 1.1 2.8 3.9 7.4 6.3 10.1 2.7 3 6.6 5.9 10.3 7.7l6 2.8h463c9.7-4.6 13.6-7.5 16.3-10.5 2.4-2.7 5.2-7.3 6.3-10.2 1.9-5.1 1.9-9.7 1.9-235.2 0-225.5 0-230.1-1.9-235.3-1.1-2.8-3.9-7.4-6.3-10.1-2.7-3-6.6-5.9-10.3-7.7l-6-2.8c-455.3 0-462.1 0.1-467 1.9z"
       style="fill:#4d0025;fill-opacity:1" />
    <path
       id="Path 1"
       class="s1"
       d="m288.5 21.1c-2.8 0.4-8.1 1.8-12 3-3.9 1.1-9.7 3.3-13 4.8-3.3 1.5-9.6 5.2-14 8.1-4.4 3-10.9 8.4-14.5 12-3.6 3.6-8.7 10-11.5 14.1-2.7 4.1-6.4 10.8-8.3 14.9-1.9 4.1-5 13.6-6.8 21-1.9 7.4-3.6 13.7-3.9 14-0.4 0.3-0.9 0-1.3-0.6-0.4-0.5-3.4-4.6-6.8-9-3.4-4.3-8.8-10.4-12-13.4-3.3-3-8.6-7.2-11.9-9.2-3.3-2-9.5-4.8-13.8-6.2-4.9-1.7-11.1-2.8-16.9-3.2-6.6-0.4-11.4-0.2-16.3 0.9-3.8 0.8-9.5 2.4-12.5 3.6-3 1.1-8.3 3.7-11.8 5.8-3.4 2.1-8.7 6.3-11.9 9.3-3.1 3-7.5 8.4-9.8 12-2.3 3.6-5.4 9.4-6.8 13-1.4 3.6-3.1 9.7-3.8 13.5-0.7 4-0.9 10.2-0.6 14.5 0.4 4.1 1.8 11.6 3.2 16.5 1.4 4.9 2.4 9.1 2.3 9.2-0.2 0.2-3.9 0.9-8.3 1.7-4.4 0.8-10.5 2.4-13.5 3.5-3 1.2-7.7 3.6-10.4 5.4-2.7 1.7-6.9 5.4-9.4 8.2-2.4 2.7-5.8 7.7-7.4 11-1.7 3.3-3.7 9.2-4.5 13-1 4.6-1.2 9.2-0.8 13.5 0.4 3.6 1.6 9.2 2.7 12.5 1.1 3.3 2.9 7.6 4.1 9.5 1.2 1.9 4.4 5.9 7.2 8.8 2.7 3 7 6.6 9.5 8.2 2.5 1.6 7.4 3.8 11 5.1 4.8 1.6 9 2.2 16 2.2 6 0.1 11.3-0.5 14.5-1.5 2.8-0.8 6.6-2.3 8.5-3.3 1.9-1 5.5-3.4 8-5.3 2.5-2 6-5.4 7.9-7.6 1.8-2.3 5.2-7 7.4-10.6l4-6.5c6.4 7.7 10.9 12.8 14.2 16.3 3.3 3.5 9.4 8.6 13.5 11.3 4.1 2.7 11.1 6.3 15.5 8 4.4 1.7 11.8 3.8 16.5 4.6 5.7 1 11.8 1.3 18.5 1 5.5-0.3 13.3-1.5 17.5-2.7 4.1-1.2 11.1-4 15.5-6.2 4.4-2.2 10.7-6.2 14-8.8 3.3-2.6 8.5-7.8 11.6-11.6 3.1-3.8 7.8-10.6 10.5-15.2 2.7-4.5 5.2-8.2 5.7-8.2 0.4 0 3 3.9 5.9 8.7 2.9 4.9 7.5 11 10.3 13.7 2.7 2.7 6.8 5.9 9 7.2 2.2 1.3 6.7 3.2 10 4.4 4.4 1.5 8.5 2 15 2 4.9 0 11.3-0.6 14-1.3 2.8-0.8 7.9-2.9 11.5-4.8 4-2.1 9-6 13-10.2l6.5-6.7c3.1 3.3 7.4 7 11.5 10.3 4.1 3.3 10.9 7.6 15 9.5 4.1 1.9 10.8 4.1 14.8 4.8 3.9 0.8 10.2 1.4 14 1.4 3.7 0 10.5-0.9 15.2-2.1 4.7-1.1 11.9-3.8 16-5.9 4.1-2.2 9.8-5.9 12.6-8.2 2.7-2.4 6.9-6.6 9.3-9.3 2.3-2.8 6.2-9.1 8.6-14 2.9-5.7 5.1-12.1 6.1-17.5 1.2-5.9 1.5-11 1.1-16.5-0.3-4.4-1.6-11.6-2.9-16-1.3-4.4-4.1-11.2-6.3-15-2.3-4.1-7-10.1-11.4-14.5-6.1-6.1-9.5-8.5-17.1-12.2-6.1-3.1-12.5-5.3-18-6.4-6.3-1.2-11.1-1.5-18.5-1.1-5.5 0.4-10.9 0.9-12 1.2-1.9 0.6-2 0-2.8-11.2-0.4-6.5-1.3-14.7-2.1-18.3-0.8-3.6-2.6-9.9-4-14-1.4-4.1-4.5-10.8-6.9-14.9-2.3-4.1-6.7-10.3-9.7-13.9-3-3.6-8.6-9.2-12.5-12.5-3.9-3.2-9.9-7.5-13.5-9.5-3.6-2-9.6-4.9-13.5-6.5-3.9-1.6-11.1-3.7-16-4.8-6.1-1.3-12.7-1.8-20.5-1.8-6.3 0.1-13.7 0.5-16.5 1zm54 258.5c-2.2 0.7-5.4 1.3-7.2 1.3-1.7 0.1-3.7 0.4-4.3 0.8-0.8 0.6-0.3 4.1 2 12.3 1.8 6.3 3.6 11.9 4.1 12.5 0.6 0.7 3.6 0.2 8.6-1.4 4.3-1.3 7.9-2.4 8.1-2.5 0.1 0-1.2-5.3-2.9-11.6-1.8-6.3-3.5-11.8-3.9-12.1-0.3-0.3-2.4 0-4.5 0.7zm-207.3 1.5c0.3 0.8 2.5 8.1 4.8 16.4 2.3 8.2 4.4 15.2 4.6 15.5 0.3 0.3 4.3-0.6 8.9-2 7.6-2.2 8.5-2.7 7.9-4.5-0.4-1.1-1.5-4.9-2.6-8.5-1-3.6-2-6.5-2.1-6.6-0.1 0-3.1-1.5-6.7-3.2-3.6-1.7-8.5-4.3-10.9-5.8-2.7-1.6-4.2-2.2-3.9-1.3zm263.3 1.5c0.2 1 3.2 11.8 6.6 23.9 3.4 12.1 6.3 22.1 6.3 22.3 0.1 0.2 4-0.8 8.8-2.2 5.7-1.7 8.7-3 8.4-3.9-0.2-0.6-2.8-9.6-5.7-19.8l-5.4-18.7c-11.6-1.7-16-2.5-17.2-2.9-1.7-0.5-2.1-0.2-1.8 1.3zm-316 8.4c-1.7 0.4-5.1 0.8-7.8 0.9-2.6 0-4.7 0.3-4.7 0.6 0 0.3 2.5 9.4 5.6 20.2 3.1 10.9 5.7 19.9 5.8 20 0 0.1 4-1 8.7-2.5l8.6-2.7c-5.7-20.1-8.2-28.6-9.1-31.8-0.9-3.2-2.1-5.6-2.9-5.6-0.6 0.1-2.6 0.5-4.2 0.9zm127.5 5.8c-4.1 0.8-7.6 1.5-7.7 1.6-0.1 0.1 1.6 6.4 3.8 14.1 2.2 7.7 4.2 14.6 4.4 15.2 0.4 1 2.6 0.6 8.7-1.3 4.6-1.5 8.4-2.7 8.6-2.8 0.2 0-0.6-3.2-1.7-7.1-1.1-3.9-2.9-10.3-4-14.3-1.2-4.2-2.6-7.2-3.4-7.1-0.6 0.1-4.6 0.8-8.7 1.7zm71.4 8l-8.1 2.7c12.3 43.4 16 56.1 16 56.2 0.1 0.1 4.1-1 8.8-2.5l8.6-2.7c-12-43.8-15.9-56.5-16.4-56.4-0.4 0-4.5 1.3-8.9 2.7zm76.5 43.2c-4.6 1.5-8.4 3.1-8.3 3.6 0.1 0.5 2 7.9 4.4 16.4 2.4 8.5 4.6 15.9 4.9 16.3 0.3 0.5 4.3-0.2 8.9-1.5 4.5-1.3 8.2-2.8 8.2-3.3 0-0.6-2.2-8.5-4.9-17.6l-4.9-16.6zm-193.8 6.3c-3.6 1.1-6.6 2.1-6.6 2.3 0 0.1 1.8 7 4 15.4 2.5 9.3 4.5 15.1 5.3 15 0.7 0 4.6-1 8.8-2.2 4.1-1.3 7.3-2.7 7.1-3.3-0.2-0.5-2.1-7.4-4.2-15.2-3.4-12.4-4.2-14.3-5.9-14.2-1.1 0.1-5 1.1-8.5 2.2zm66.5 15c-3.9 1.1-7.2 2.1-7.3 2.1-0.2 0.1 3.3 13 7.8 28.6 4.4 15.7 8.2 29.1 8.5 29.8 0.3 0.9 2.5 0.6 8.7-1.4 4.5-1.4 8.4-2.7 8.6-2.7 0.1-0.1-3.5-13.3-8-29.4-6.3-22.1-8.7-29.3-9.8-29.2-0.9 0.1-4.7 1.1-8.5 2.2zm201.5 0.3c-4.2 1.4-7.6 2.6-7.7 2.8 0 0.2 2.4 9.3 5.4 20.3 3 10.9 5.8 20.2 6.1 20.6 0.4 0.5 4.2-0.2 8.5-1.5 4.4-1.2 8.1-2.7 8.3-3.3 0.2-0.5-2.3-9.9-5.4-20.9-3.2-10.9-6.2-20-6.7-20.1-0.6-0.2-4.4 0.8-8.5 2.1zm-329.5 3.6c-3.9 1.1-7.3 2.4-7.6 2.8-0.3 0.4 2.4 11.5 5.9 24.6 3.5 13.2 6.7 24.3 7 24.6 0.4 0.4 4.2-0.2 8.5-1.5 4.4-1.2 8.1-2.6 8.3-3.2 0.2-0.5-2.7-11.8-6.5-25-3.8-13.2-7.3-24-7.8-24.1-0.4-0.1-4 0.7-7.8 1.8zm207.5 31c-3.6 1.1-6.9 2.4-7.3 2.8-0.4 0.4 2.6 12.9 6.8 27.7 4.1 14.7 7.6 27 7.7 27.1 0.2 0.2 4.2-0.8 9-2.2l8.8-2.6c-3.1-10.4-6.7-22.7-9.9-34-3.8-13.4-6.3-20.5-7.2-20.7-0.8-0.1-4.4 0.7-7.9 1.9zm69.2 21.7c-4.6 1.4-8.1 3.1-7.9 3.6 0.2 0.6 2.1 7.1 4.2 14.5 2.1 7.5 3.8 13.7 3.9 13.8 0 0.2 4-0.8 8.8-2.2 4.8-1.4 8.8-2.8 8.8-3.1 0-0.2-1.8-7-3.9-15-2.1-7.9-4.3-14.4-4.8-14.4-0.4 0.1-4.6 1.3-9.1 2.8zm-192.8 2c-4.4 1.3-8.1 2.5-8.3 2.5-0.1 0.1 1.6 6.9 3.9 15.1 2.3 8.3 4.5 15.3 4.8 15.7 0.4 0.4 4.3-0.5 8.7-1.9 4.4-1.3 8.1-2.5 8.3-2.6 0.1-0.1-1.6-6.9-3.9-15.2-2.3-8.2-4.5-15.2-4.8-15.5-0.4-0.4-4.3 0.5-8.7 1.9zm270.1 26.7c-4.4 1.3-8.1 2.5-8.2 2.7-0.1 0.1 2.1 8.5 5 18.5l5.2 18.3c14.3-0.1 18.5-0.4 18.5-0.8 0-0.4-2.4-9.9-5.4-21-3-11.2-5.9-20.2-6.3-20.2-0.5 0-4.4 1.2-8.8 2.5zm-328.8 12l-7.7 2.4c3.9 13.6 5.4 19.2 6 21.3l1 3.7c14.7 0 19-0.3 19-0.7 0-0.4-1.8-7.1-4-14.8-2.2-7.7-4-14.1-4-14.2 0-0.2-0.6-0.2-1.3-0.2-0.7 0.1-4.7 1.2-9 2.5zm132.8 4.2c-4.4 1.4-8.2 2.6-8.3 2.6-0.2 0.1 1 4.6 2.5 10.1l2.8 10 19.5 0.5c-3.2-10.4-4.7-16.3-5.5-19.7-0.8-3.5-1.8-6.2-2.3-6.2-0.4 0.1-4.3 1.3-8.7 2.7z"
       style="fill:#97c1ff;fill-opacity:1" />
  </g>
</svg>
